<svg width="31" height="26" viewBox="0 0 31 26" fill="none" xmlns="http://www.w3.org/2000/svg">
<path fill-rule="evenodd" clip-rule="evenodd" d="M15.5349 0.333313C16.7842 0.333313 18.0657 0.368146 19.3077 0.425146L20.7748 0.501146L22.179 0.591396L23.4941 0.68798L24.6952 0.789313C25.9986 0.897419 27.2252 1.50015 28.159 2.49146C29.0928 3.48277 29.6741 4.79917 29.8006 6.20906L29.8591 6.88198L29.9686 8.32281C30.0709 9.8159 30.1469 11.4436 30.1469 13C30.1469 14.5564 30.0709 16.1841 29.9686 17.6771L29.8591 19.118C29.8401 19.3491 29.8211 19.5724 29.8006 19.7909C29.6741 21.201 29.0925 22.5176 28.1584 23.509C27.2243 24.5003 25.9974 25.1029 24.6937 25.2106L23.4955 25.3104L22.1804 25.4086L20.7748 25.4988L19.3077 25.5748C18.0508 25.634 16.7929 25.6646 15.5349 25.6666C14.2768 25.6646 13.0189 25.634 11.7621 25.5748L10.295 25.4988L8.89079 25.4086L7.57571 25.3104L6.3746 25.2106C5.07113 25.1025 3.8446 24.4998 2.91078 23.5085C1.97695 22.5172 1.39566 21.2008 1.26916 19.7909L1.21071 19.118L1.10112 17.6771C0.989391 16.1209 0.92993 14.5609 0.922852 13C0.922852 11.4436 0.998834 9.8159 1.10112 8.32281L1.21071 6.88198C1.2297 6.65081 1.2487 6.42756 1.26916 6.20906C1.39561 4.79942 1.9767 3.48322 2.91022 2.49194C3.84375 1.50066 5.06993 0.897775 6.37314 0.789313L7.57279 0.68798L8.88787 0.591396L10.2935 0.501146L11.7606 0.425146C13.018 0.365982 14.2763 0.335364 15.5349 0.333313ZM12.6125 9.1604V16.8396C12.6125 17.5711 13.3431 18.0271 13.9276 17.6629L20.0646 13.8233C20.1982 13.74 20.3091 13.6201 20.3862 13.4755C20.4633 13.331 20.5039 13.1669 20.5039 13C20.5039 12.833 20.4633 12.669 20.3862 12.5245C20.3091 12.3799 20.1982 12.2599 20.0646 12.1766L13.9276 8.33865C13.7942 8.25524 13.643 8.21134 13.4891 8.21137C13.3351 8.2114 13.1839 8.25535 13.0506 8.3388C12.9173 8.42225 12.8066 8.54226 12.7297 8.68677C12.6528 8.83127 12.6124 8.99517 12.6125 9.16198V9.1604Z" fill="rgb(115, 115, 115)"/>
</svg>
